<?xml version="1.0"?>
<svg xmlns:rdf="http://www.w3.org/1999/02/22-rdf-syntax-ns#" xmlns="http://www.w3.org/2000/svg" xmlns:cc="http://creativecommons.org/ns#" xmlns:xlink="http://www.w3.org/1999/xlink" xmlns:dc="http://purl.org/dc/elements/1.1/" xmlns:svg="http://www.w3.org/2000/svg" xmlns:inkscape="http://www.inkscape.org/namespaces/inkscape" xmlns:sodipodi="http://sodipodi.sourceforge.net/DTD/sodipodi-0.dtd" xmlns:ns1="http://sozi.baierouge.fr" id="svg2" viewBox="0 0 225 225" version="1.1">
  
  <g id="layer1" transform="translate(-87 -87)">
    <g id="g3836">
      
      <path id="path3786" style="color:#000000" fill="#ff0000" d="m160.72 89.069c-6.8819 5.1785-15.62 6.6482-22.929 11.044-18.018 20.591 6.1649 53.02 16.258 71.084 5.6308 10.686 12.639 20.25 20.35 29.207-7.7389 8.1683-15.268 16.493-22.592 24.947-23.403 22.39-41.121 53.273-40.307 86.445 13.1-6.987 28.585-8.7001 40.924-17.267 1.9693-19.413 17.967-51.365 38.345-76.803 16.272 15.931 33.937 30.643 49.221 47.371 18.398 12.898 21.451 21.189 35.879 17.827 15.814-1.7638 11.56-20.191-0.61667-29.936-18.995-21.872-41.986-40.332-61.947-61.33 24.908-26.948 52.73-51.224 82.745-72.318 15.701-8.36 31.949-17.881 44.848-26.797-11.365 1.0465-22.067 5.7671-32.907 9.0818-40.735 17.534-76.554 43.773-108.76 74-4.9137-6.1599-9.4966-12.625-13.567-19.509-15.492-23.716-25.208-42.266-24.947-67.048z"/>
    </g>
  </g>
  
</svg>